<?xml version="1.0" encoding="UTF-8"?>
<svg id="_Слой_1" data-name="Слой_1" xmlns="http://www.w3.org/2000/svg" version="1.1" viewBox="0 0 1080 1080">
  <!-- Generator: Adobe Illustrator 29.1.0, SVG Export Plug-In . SVG Version: 2.1.0 Build 142)  -->
  <defs>
    <style>
      .st0 {
        fill: #fff;
      }

      .st1 {
        fill: #282828;
      }

      .st2 {
        fill: gray;
      }

      .st3 {
        fill: #5ac86e;
      }

      .st4 {
        fill: #e1e2e3;
      }
    </style>
  </defs>
  <g>
    <path class="st3" d="M160.1,0h379.9v540H0V160.1C0,71.7,71.7,0,160.1,0Z"/>
    <path class="st4" d="M540,0h379.9C1008.3,0,1080,71.7,1080,160.1v379.9h-540V0h0Z"/>
    <path class="st1" d="M540,540h540v379.9c0,88.4-71.7,160.1-160.1,160.1h-379.9v-540h0Z"/>
    <path class="st2" d="M0,540h540v540H160.1C71.7,1080,0,1008.3,0,919.9v-379.9H0Z"/>
  </g>
  <path class="st0" d="M238.7,777.4c13.7-3.9,27.7-7.8,41.9-9.5,48.1-5.7,115.6,2.6,139.7,51.1,5.1,10.2,6.9,21.9,11.4,32.3l4.3-6.7c7.2-8.4,21.3-5,22.6,6.2,1.7,15.1-11.7,18.3-23.1,12-1.7,22.3-3,41.3-14.2,61.1-25.2,44.4-86.7,54.7-125,21-29.5-26-23.6-78.1,9.1-98.4,4.6-2.8,17.9-8.6,22.9-7.5,1.6.3,3.6,2.6,1.6,4.1s-11.9,2.4-16,4.2c-39.9,16.8-43.2,78.2-4.1,101.4,53.8,31.8,111.7-4,119-63.3s2.5-22.6,1.9-26.8-3.9-6.9-5.2-10.2c-4.4-11.2-6.2-21.9-12.6-32.5-28.5-47.5-106.1-50.2-154-39-6.2,1.5-19.1,4.5-24.3,7.4-5.9,3.3-12,21-22.4,25.6-10.2,4.4-16.9-4.3-11.1-14,5.9-9.8,18.4-9.8,27.1-14.2s18-25.3,21.3-31.5c11.7-22.2,25.8-57.3,20.7-82.5-2.2-10.8-11.5-8.2-18.9-4s-17.1,12.2-18.3,14.3-2.7,9.3-4.3,13c-3.2,7.6-16.1,36.9-24,38.4-11.4,2.2-9.9-10.8-6.4-17.9,6.3-12.7,20.3-25,29.5-35.9-3.1-20.6-22.5,8.5-27.2,15.1-9.9,13.8-19.4,30.2-26.3,45.7-2.4,5.5-10.5,30.9-12.3,32.9s-6.7,1.1-9.9,1.6c-18,3.1-37.8,17.3-51.1,29.5-12.6,11.7-24,29-3.3,39.7,17,8.8,38.6,4.3,57,4.5,9.4,1.5,7.2,14.2,8.5,21.3,3.5,18.9,12.9,25.1,18.8,39.7,4.6,11.3-1.7,18.9-12.1,23.2-6.4,2.6-32.5,6.5-24.7,18.4,6.9,10.5,42.9,8.6,54.7,8.7,29.1.3,59,.2,88.3-1,2.5-.1,10.3-3,9.8,1.4-.5,4.8-21.9,3.1-26.2,3.3-31.2,1.3-67.8,2.9-98.9,1-10.6-.6-36.8-3.8-33.8-19.5,3.3-17.3,38.3-12,39.6-28.4.5-6.6-8.9-16.4-12.1-22.5-4.1-7.8-6.5-15.8-8.2-24.4s-.8-14.7-3.1-16.1c-19.8-.9-52.4,5.4-67.7-11-19-20.2,11.2-44.2,26.5-55.2s27.5-17.6,44.1-18.3c9.3-28.8,22.5-56.2,40.5-80.5,7.3-10,24.4-35.4,33.9-13.1,11.2-9.9,37.1-29.8,42.5-4.1,4.5,21.6-5.4,50.9-14.3,70.7-6.1,13.6-14,26.4-21.9,39ZM224.2,687.2c-6.4,5.9-24.6,25.7-24.1,34.1.8,11.1,11.8-7.2,13.3-9.8,4.3-7.5,7.9-16.1,10.7-24.3ZM225.2,788c-4.9-.4-28,11-20.7,17.3,6.1,5.2,18.4-12.5,20.7-17.3ZM451.5,859.7c6.3-5,.2-20.3-10.2-13.6-2.6,1.6-5.8,8.3-4.4,11s11.4,5.2,14.7,2.6Z"/>
  <path class="st1" d="M852.2,389.7c-10-1.3-14.9-17.8-1.4-17.4,8.1.2,9.8,7.7,9.1,14.5,39.3-1.9,60.5-47.1,67.7-80.6,3.1-14.6,6.2-31.4,2.4-46.1-2.2-1.6-21.9,22.4-29.8,12-5.9-7.8,2.6-18.6,10.3-21.4s9-1.6,13.2-1.1c6.1.7,4.5,4.4,10.5-3,22.4-27.3,44.7-102.9,37.6-137.3s-2.7-12.2-6.3-11.1c-6.7,1.9-23.4,26.5-29.2,33.2-17.8,20.4-39.5,37.5-58.1,57.1s-46.3,58.3-60.6,92c-10.2,24.2-21.8,74.6-58.4,65.5-30.5-7.6-48.4-71.1-86.3-44.1-9.4,6.6-11.4,17.5-20.2,23.9,20,.5,40.5,12.8,47.8,31.9,2.6,6.8,3.5,14.2,5.7,21.1,15.6,49.1,42.2,71.7,95.3,60.2,39-8.4,81.3-28.1,119.9-6.1l-1.3,4.7c-37.2-21.6-78.9-2.2-116.8,6.1-56.3,12.3-85.3-11.7-101.8-63.9-3.4-10.8-4-21.6-11.3-31-6.6-8.4-21.4-16.8-32.2-17.8s-14.8,1.2-15.7-1.6c-1-4.4,4.5-5.2,7.5-7.7,6.8-5.6,9.4-13.9,15.5-20s13.4-9.7,21-10.2l-8.4-15.1c-9.7-24.4-2.8-49-3-73.7,0-13.7-5.6-30.9-.8-44,.8-2.2,2.4-4.1,3.6-6l3.5.4c5.7,15.1,16.4,25.1,21.8,40.6,8,23.2,11.3,43.9,21.9,67.3,11,24.2,24.6,41.1,37.7,63.1s5,10.9,8,16,0,1.6,1.6,1.2c27.5-9.4,32.9-44.9,43.6-68.8,13.9-31.1,33.6-60.4,56.8-85.3,18.5-20,40.9-37.7,59.1-58,6.9-7.8,25.2-36.1,34.6-36.5s12.3,33.4,11.9,41.7c-2.1,40.8-21,88.4-45,121.1,6.7,15.5,2.8,35.1-.6,51.2-7.5,34.9-28.4,78.2-67.3,84.4-2.4.4-5.4-.4-7.4.3s-5,5.9-7,7.4c-9.4,7.1-21.1,8.4-32.4,9.8l-2-1v-3c7.9-2.6,15.6-2.1,23.5-5.2s14.4-7.5,12.5-10.1ZM765.8,341.7c-5.7-13.8-15.6-25-23.4-37.5-12.7-20.2-24.3-43.1-32.3-65.7s-8.6-38.3-16.5-53.6c-4.3-8.2-11.4-14.9-14.7-23.7-1.3.5-2.4,7.6-2.4,9.1-.1,10,2.9,22.4,3,32.6.2,25.6-9.2,62.1,9.5,83.5,5.7,6.5,8,4.4,15,7,24.5,9,33.6,46.6,61.7,48.2ZM904.1,269.6c.8.6,2.8,0,3.8-.4,3-.4,17.6-11.9,17.3-13.5-6.3-4.9-20.6,1.3-21.9,8.9-.2,1.1.3,4.5.9,5ZM855.1,385.8c1.5-3.9-2.5-10.9-6.7-8.2s5.5,9.6,6.7,8.2Z"/>
  <path class="st3" d="M702.1,720c-13.7,14.3-46.3,15.2-63,31.5-11.9,11.6-16.5,34.9,2.2,42.1s22.7-8.8,31.9-19.5c21.4-24.8,86.8-52.8,119-49.9,21.6,2,27.6,11.6,41.3,25,7.3,7.1,10.2,4.3,18.6,6.4,4.6,1.1,9.1,4.7,13.1,7,1.3-6.9,2.7-33.6,6.2-38,7.9-9.7,18.5,16,24.6,16.9s14.6-4.3,19.3-4.7c17-1.6,32.3,2.7,48.7,5.6l22.1-14.4c4.2,0,5.9,7.1,6.8,10.5,1.5,5.6,2.7,12.8,2.1,18.5s-3.7,10.4-3.7,14.7c0,4.7,4.2,12.5,4.8,18.3,1,9.8-1.1,24.3-6.4,32.7s-11.6,10.3-11.7,12.3c0,2.9,4.8,7.5,5.5,10.8s0,6.7.5,10.1c2.3,14.4,10.4,21.5,1.5,36.6-7,11.8-23.3,22.5-37.5,20.6-8-1.1-23.1-10.8-29.6-3.1-3.1,3.8-2.5,7.9-8.1,12-15,10.9-27.7-3.2-42.4-4.7-9.4-.9-20.5,1.5-30.6.9-16.4-1-32.8-5.9-47-14.2-36.4,29.5-89.5,26.9-126.1-.8s-29.4-62.1-15.4-89.7l4.7,2.4c-10.1,17.2-9.7,40.7-3.4,59.3,4.5,13.3,11.3,20.6,22.8,28,35.2,22.7,78.8,23.3,113.2-1.4.9-1.3-5.4-5.7-6.7-7.2-16.8-18.6-21.2-46.9-6.9-68.4,16.9-25.4,37.7-3.3,42.2,17.8,4.7,21.7-4.8,41.4-19.9,56.4,11.8,7.6,27.8,12,41.8,12.9s27.5-3.2,43.2,1.9c9,2.9,16,9.2,26.1,4,6.5-3.3,6.4-11.6,11.8-15,11.2-7,24.8,5.3,36.8,4.2,7.5-.7,18.7-8.1,23.7-13.8,12.6-14.5,4-23,1.1-38.5-.5-2.7.2-5.5-.3-8.3s-5.6-8.7-5.6-12.7c0-5.6,8.5-9.2,11.8-14.2,5.3-8.1,7.4-20.3,6.4-29.8-.8-8-5.7-14.8-4.4-22.9.7-4.3,3.6-8.7,3.7-13.7s-2.9-14.2-3.9-20.6l-2.9.5-17.8,12.9c-17-1.5-32.1-7.2-49.7-5.6s-16,5.1-20.3,4.7c-7.5-.6-13.5-12.9-18.7-17.9l-2.5.5c-.8,11.9-6,24.7-3.9,36.6.7,4.1,4.2,7.9,4.3,11.1s-5.6,13.4-5.8,20.1c-.6,25.3,17.2,31,33.5,43.2,13.5,10.1,13.8,18.4,33.9,10.7,5.1-2,11.4-8.9,11.2.2-10.6,4.4-20.3,10.9-32.1,5.9-6.7-2.9-10.6-8.8-15.9-12.9-6.9-5.3-16.2-8.8-22.5-15-10.6-10.4-15.1-26.9-11.6-41.3,2.2-9,7.5-9.2-.4-17.8-8.3-9-13.3-8.3-24.1-10.5-10.8-2.1-14.4-11.2-21.5-17.8-30.8-28.7-102.3,2.7-131,24.6-11.2,8.6-14.1,16-22.6,25.4-23.5,25.6-59.3-9.3-34.1-39.8,13.3-16,35.5-19.1,53.4-27.2,7.9-3.5,18.8-9.3,16.4-19.6s-11.2-4.3-12.3-5-2.8-4.4-.3-5.2c14.7-4.5,24,13.4,12.5,25.4ZM786.6,819.4c-4.3.9-11.8,11.1-13.7,15.2-9.8,21.7-2.8,49.6,17.3,62.4,17.3-14.7,26-38.9,16.6-60.8-2.9-6.6-12-18.5-20.2-16.8Z"/>
  <path class="st1" d="M245.6,203.1l11.5,6.3c8.2,5.9,7,14,9.9,22.7,12.8,38.2,23.9,61.3,58.4,83.7,5.2,3.4,11.5,5.7,16.6,9.4,12.8,9.4,20.8,32.2,28.5,45.9,1.1.8,11.8-21.4,12.6-23.3,10.7-24.3,17.9-50.8,8.6-76.9l4.7-2.5c13.2,38.7-5,74.3-21.9,108.2,4.2,10.1,10.6,20.7,8.2,32.3-3.1,15.3-21.2,12.5-21-5.6,0-7.6,7.1-22.9,6.6-26.6s-12.8-24.4-15-28.2c-11.7-19.9-12.8-17-30.8-28.7-34.7-22.6-46.6-45.7-59.6-84.4-5.4-16,0-17.7-16.9-26.3-12.8-6.6-47.6-18.3-55.1-28.5-2.3-3.2-3.6-6.4-2.7-10.4,3-8.9,28.2,5,33,8,7.5,4.7,23.2,20.1,29.8,21.1s10.2-.3,12.9-4.7c-17.5.6-13.2-19.3-15.8-30.8-2.9-12.9-9.6-16.3-6-31.8,4.1-17.7,31.2-49.7,51.1-39.2,14.9,7.9,5.7,28.2,4.4,40-1,9.3.6,19.2-3.2,28.5s-15,11-18,21.8c11.3-.9,17.8,8.3,29.2,8.7,11.6.4,32.2-4.8,38.2-15.7,6.2-11.4-5.3-11-12.2-16-20-14.8-14.9-40.4-26.6-58.9-8.9-14-32.8-23.7-49-21.5-24.7,3.4-26.8,27.1-39.2,43.4-11.6,15.2-28.4,26.8-38.2,43.4s-11.9,31.6-17.4,47.8c-12.5,36.3-21.6,59.3-15.1,99.5,1.7,10.7,7.2,21.6,8.2,32.1,2.5,25.4-.3,42.5,11.8,66.9,20.9,42.6,56.5,43.8,98.3,47.7s39.9,8,60.3-3.1,21.9-14.5,26.6-20.4c2.5-3.2,4.9-6.8,4.8-11h4.8c.3,3-.5,5.6-1.8,8.3-4.5,10-28.3,26.5-38.6,30.5-20.2,7.9-45.5,1.8-66.7-.5-35.1-3.7-62.5-5.7-84.8-37.1-19.6-27.7-16.4-49.2-19.5-80.3s-8-26.2-9.5-40.4c-4-39.2,5.1-60.7,17.3-96,5.9-17,8.7-33.9,18.8-49.4s13.2-14.9,19.6-22.6c-8.8-2.9-16.3-16.9-7.6-24s15.4-6.8,22.1-12.5c11.7-10,18-34.1,37.5-29.8,2.4.5,5,2.8,6.2,3,3.2.4,9.1-.8,13.4-.4,14.9,1.5,33.3,11,41.7,23.6,11.9,17.8,7.2,43.6,25.1,57.4,6.9,5.3,17.3,4.6,16.4,16.3-1.4,17.9-33.9,26.2-48.4,24.4-8-1-16.6-8.9-23-8.5s-6.6,5-9.7,8.6c-6.5,7.5-14,9.1-23.5,6.7ZM246.6,76.3c-15-1.6-19.3,13.4-26.9,22.5s-8.4,8.4-12.8,11.2-15.2,7.1-16.7,8.7c-4.6,4.7,4.7,17.8,10.8,14.2s11.1-11.9,12.8-14.2c8.7-11.8,11.8-27.3,23.7-36.8l9.1-5.8ZM280.9,95.8c-10.7,1.8-26.9,19.4-31.3,29.2-9,19.8,0,21.8,3.5,38.5,1.6,8.2-1.5,28.9,12,26s7.8-12.2,11.3-16.6c3-3.9,8.4-5.9,11-9.2,6.3-7.8,4.3-21.9,5.4-31s12.4-41-11.9-36.8ZM243.7,201.1c-15.9-11-30.3-27.2-50.9-28.8-.3,2.4.9,4.1,2.4,5.8,4.5,5.4,37.5,20.6,45.6,23.5s3.1,1.3,2.9-.5ZM375,413c6.7-5.9,1.9-23.6-3.5-29.5-1.7,7-5.9,16.2-4.8,23.5s4.8,9.1,8.3,6Z"/>
</svg>